#format: frame checksums
#version: 2
#hash: MD5
#tb 0: 1001/30000
#media_type 0: video
#codec_id 0: rawvideo
#dimensions 0: 32x64
#sar 0: 1/1
#stream#, dts,        pts, duration,     size, hash
0,          0,          0,        1,     3072, caa8471a8b381d53c3e8fc627946a871
0,          1,          1,        1,     3072, 2cba86ea14c0f28e242625b08f5e9b88
0,          2,          2,        1,     3072, cea0440ff6569fc82c3030e0340fb649
0,          3,          3,        1,     3072, c18ef37f1356ade96a2f40af954b31c8
0,          4,          4,        1,     3072, 21e6e549378bcff47913ef292e74dc37
0,          5,          5,        1,     3072, a9d3d483f74a5afe5d80725ce696fd20
0,          6,          6,        1,     3072, a436e2586b0963747deaf5e450e2b230
0,          7,          7,        1,     3072, 9daaadf265df56974cb0950843d9fd8c
0,          8,          8,        1,     3072, e0b84714bad2519e62b7d16705fb09d5
0,          9,          9,        1,     3072, 8cdfce574edbe548da7f6cd9a7076b9e
